<svg width="1117" height="761" viewBox="0 0 1117 761" fill="none" xmlns="http://www.w3.org/2000/svg">
<path opacity="0.5" d="M1092.43 362.743C1095.13 362.713 1097.72 361.573 1099.74 359.535C1101.76 357.497 1103.05 354.699 1103.4 351.658C1103.48 350.715 1103.53 349.766 1103.53 348.817C1103.53 342.291 1101.25 336.033 1097.18 331.418C1093.12 326.804 1087.61 324.211 1081.86 324.211H1080.41C1079.95 317.453 1077.21 311.159 1072.75 306.658C1068.28 302.157 1062.45 299.8 1056.49 300.087C1050.53 300.373 1044.89 303.28 1040.78 308.193C1036.67 313.106 1034.4 319.641 1034.45 326.418C1034.45 327.078 1034.45 327.712 1034.45 328.321C1031.07 326.18 1027.27 325.043 1023.4 325.013C1019.53 324.984 1015.72 326.064 1012.31 328.153C1008.91 330.242 1006.02 333.272 1003.92 336.964C1001.82 340.656 1000.57 344.89 1000.3 349.274C1000.28 349.375 1000.28 349.477 1000.3 349.578C1000.22 351.27 1000.44 352.963 1000.96 354.553C1001.48 356.143 1002.27 357.596 1003.3 358.824C1004.33 360.052 1005.57 361.028 1006.94 361.693C1008.32 362.358 1009.79 362.698 1011.29 362.693L1092.43 362.743Z" fill="#E1E6FF"/>
<path opacity="0.5" d="M940.223 172.493C962.184 172.493 963.613 134.951 941.698 133.505C940.983 133.505 940.268 133.505 939.464 133.505C935.633 133.5 931.825 134.185 928.182 135.534C926.646 125.397 921.969 116.218 914.996 109.653C908.023 103.087 899.213 99.5681 890.155 99.7304C881.098 99.8927 872.39 103.726 865.603 110.538C858.816 117.35 854.396 126.692 853.142 136.879C845.553 132.779 836.918 131.915 828.814 134.443C809.825 140.354 814.204 172.493 833.907 172.493H940.223Z" fill="#E1E6FF"/>
<path opacity="0.5" d="M614.685 98.93C641.493 98.93 643.146 53.27 616.472 51.5197C615.579 51.5197 614.64 51.5197 613.724 51.5197C609.056 51.5509 604.421 52.4067 599.985 54.0564C598.173 41.6703 592.505 30.4346 584.012 22.394C575.519 14.3533 564.766 10.0421 553.709 10.2449C542.653 10.4477 532.028 15.151 523.769 23.4989C515.509 31.8468 510.163 43.2845 508.704 55.7306C502.977 52.5955 496.699 50.9738 490.341 50.987C486.899 50.9921 483.471 51.469 480.131 52.4075C456.339 58.9268 460.963 98.93 485.47 98.93H614.685Z" fill="#E1E6FF"/>
<path d="M637.159 154.103C637.159 154.103 708.513 111.816 720.934 185.177C733.355 258.537 656.305 259.171 656.305 259.171L637.159 154.103Z" fill="#E3E7FE"/>
<path d="M637.159 154.103C637.159 154.103 708.513 111.816 720.934 185.177C733.355 258.537 656.305 259.171 656.305 259.171L637.159 154.103Z" stroke="#6576FF" stroke-width="2" stroke-miterlimit="10"/>
<path d="M722.922 192.787C722.922 192.787 748.033 187.713 757.974 187.713C767.915 187.713 769.926 188.297 771.914 201.843C773.902 215.388 776.382 238.599 793.807 238.599H898.068" stroke="#6576FF" stroke-width="2" stroke-miterlimit="10"/>
<path d="M654.794 280.767C674.151 276.439 684.304 240.994 677.472 201.599C670.64 162.204 649.41 133.777 630.054 138.105C610.697 142.433 600.543 177.878 607.375 217.273C614.207 256.668 635.437 285.095 654.794 280.767Z" fill="white"/>
<path d="M654.794 280.767C674.151 276.439 684.304 240.994 677.472 201.599C670.64 162.204 649.41 133.777 630.054 138.105C610.697 142.433 600.543 177.878 607.375 217.273C614.207 256.668 635.437 285.095 654.794 280.767Z" stroke="#6576FF" stroke-width="2" stroke-miterlimit="10"/>
<path d="M638.228 281.666C653.763 278.212 661.099 244.929 654.614 207.327C648.129 169.725 630.278 142.043 614.744 145.497C599.209 148.951 591.873 182.234 598.358 219.836C604.843 257.438 622.693 285.121 638.228 281.666Z" fill="white"/>
<path d="M638.228 281.666C653.763 278.212 661.099 244.929 654.614 207.327C648.129 169.725 630.278 142.043 614.744 145.497C599.209 148.951 591.873 182.234 598.358 219.836C604.843 257.438 622.693 285.121 638.228 281.666Z" stroke="#6576FF" stroke-width="2" stroke-miterlimit="10"/>
<path d="M621.052 200.473C624.754 200.473 627.754 195.93 627.754 190.326C627.754 184.722 624.754 180.179 621.052 180.179C617.351 180.179 614.35 184.722 614.35 190.326C614.35 195.93 617.351 200.473 621.052 200.473Z" fill="#6576FF"/>
<path d="M629.988 248.669C633.69 248.669 636.69 244.127 636.69 238.523C636.69 232.919 633.69 228.376 629.988 228.376C626.287 228.376 623.286 232.919 623.286 238.523C623.286 244.127 626.287 248.669 629.988 248.669Z" fill="#6576FF"/>
<path d="M480.31 281.57H440.992C427.957 281.57 415.456 275.69 406.239 265.225C397.022 254.759 391.844 240.564 391.844 225.763C391.844 210.962 397.022 196.768 406.239 186.302C415.456 175.836 427.957 169.957 440.992 169.957H477.25L480.31 281.57Z" fill="#E3E7FE"/>
<path d="M480.31 281.57H440.992C427.957 281.57 415.456 275.69 406.239 265.225C397.022 254.759 391.844 240.564 391.844 225.763C391.844 210.962 397.022 196.768 406.239 186.302C415.456 175.836 427.957 169.957 440.992 169.957H477.25L480.31 281.57Z" stroke="#6576FF" stroke-width="2" stroke-miterlimit="10"/>
<path d="M482.544 251.13H549.854C550.702 251.13 551.541 251.321 552.324 251.691C553.106 252.062 553.816 252.605 554.412 253.289C555.008 253.973 555.479 254.785 555.797 255.677C556.116 256.569 556.275 257.524 556.266 258.486V261.657C556.266 263.588 555.59 265.44 554.388 266.805C553.186 268.17 551.555 268.937 549.854 268.937H482.544V251.13Z" fill="white"/>
<path d="M482.544 251.13H549.854C550.702 251.13 551.541 251.321 552.324 251.691C553.106 252.062 553.816 252.605 554.412 253.289C555.008 253.973 555.479 254.785 555.797 255.677C556.116 256.569 556.275 257.524 556.266 258.486V261.657C556.266 263.588 555.59 265.44 554.388 266.805C553.186 268.17 551.555 268.937 549.854 268.937H482.544V251.13Z" stroke="#6576FF" stroke-width="2" stroke-miterlimit="10"/>
<path d="M482.544 177.567H549.854C550.702 177.567 551.541 177.757 552.324 178.128C553.106 178.499 553.816 179.042 554.412 179.726C555.008 180.41 555.479 181.221 555.797 182.114C556.116 183.006 556.275 183.961 556.266 184.923V188.094C556.254 190.016 555.573 191.855 554.372 193.209C553.171 194.563 551.547 195.323 549.854 195.323H482.544V177.567Z" fill="white"/>
<path d="M482.544 177.567H549.854C550.702 177.567 551.541 177.757 552.324 178.128C553.106 178.499 553.816 179.042 554.412 179.726C555.008 180.41 555.479 181.221 555.797 182.114C556.116 183.006 556.275 183.961 556.266 184.923V188.094C556.254 190.016 555.573 191.855 554.372 193.209C553.171 194.563 551.547 195.323 549.854 195.323H482.544V177.567Z" stroke="#6576FF" stroke-width="2" stroke-miterlimit="10"/>
<path d="M212.23 130.004C212.23 130.004 283.115 119.223 288.186 135.864C293.257 152.504 293.749 160.14 291.358 192.432C288.968 224.723 313.229 225.408 326.722 225.028C340.216 224.647 406.208 225.028 406.208 225.028" stroke="#6576FF" stroke-width="2" stroke-linecap="round" stroke-linejoin="round"/>
<path d="M482.164 154.813H478.456C472.077 154.813 466.906 160.684 466.906 167.927V281.215C466.906 288.458 472.077 294.329 478.456 294.329H482.164C488.543 294.329 493.714 288.458 493.714 281.215V167.927C493.714 160.684 488.543 154.813 482.164 154.813Z" fill="white"/>
<path d="M482.164 154.813H478.456C472.077 154.813 466.906 160.684 466.906 167.927V281.215C466.906 288.458 472.077 294.329 478.456 294.329H482.164C488.543 294.329 493.714 288.458 493.714 281.215V167.927C493.714 160.684 488.543 154.813 482.164 154.813Z" stroke="#6576FF" stroke-width="2" stroke-miterlimit="10"/>
<path d="M448.164 660.279H686.063C689.068 635.498 689.884 610.438 688.498 585.473C685.43 521.498 672.532 473.352 649.805 441.035C627.078 408.718 595.705 393.794 555.686 396.263C515.683 398.749 485.896 417.444 466.326 452.349C446.757 487.253 438.528 536.701 441.641 600.693C442.507 620.711 444.688 640.629 448.164 660.279Z" stroke="#6576FF" stroke-width="2" stroke-miterlimit="10"/>
<path d="M509.331 660.279H626.125C628.443 636.697 628.892 612.926 627.465 589.252C625.097 539.466 618.395 503.699 607.359 481.951C596.323 460.204 579.94 450.006 558.211 451.359C536.437 452.712 521.134 464.956 512.302 488.09C503.471 511.225 500.246 547.482 502.629 596.862C503.47 618.161 505.71 639.359 509.331 660.279Z" fill="#EFF1FF"/>
<path d="M509.331 660.279H626.125C628.443 636.697 628.892 612.926 627.465 589.252C625.097 539.466 618.395 503.699 607.359 481.951C596.323 460.204 579.94 450.006 558.211 451.359C536.437 452.712 521.134 464.956 512.302 488.09C503.471 511.225 500.246 547.482 502.629 596.862C503.47 618.161 505.71 639.359 509.331 660.279Z" stroke="#6576FF" stroke-width="2" stroke-miterlimit="10"/>
<path d="M942.375 573.969L942.379 574.082L942.385 574.195C943.188 591.124 943.204 608.092 942.436 625H768.052C766.875 613.069 766.062 601.071 765.616 589.036L765.613 588.957L765.61 588.877C762.6 516.468 770.909 465.323 786.874 432.01C801.846 400.768 821.521 388.084 847.136 386.217C847.138 386.216 847.141 386.216 847.144 386.216C847.147 386.216 847.15 386.215 847.154 386.215C861.173 385.206 872.071 387.784 881.106 392.812C890.337 397.95 899.76 406.85 908.679 421.688C926.944 452.074 939.402 501.446 942.375 573.969Z" stroke="#6576FF" stroke-width="70" stroke-miterlimit="10"/>
<path d="M798.289 660H915.011C917.328 632.427 917.776 604.634 916.35 576.954C913.984 518.743 907.286 476.924 896.257 451.496C885.227 426.068 868.855 414.145 847.139 415.727C825.378 417.309 810.085 431.624 801.258 458.673C792.432 485.723 789.21 528.116 791.591 585.852C792.431 610.755 794.67 635.54 798.289 660Z" fill="white"/>
<path d="M915.351 576.995L915.351 577.006C916.759 604.334 916.337 631.773 914.09 659H799.152C795.613 634.855 793.42 610.394 792.591 585.818L792.59 585.811C790.21 528.096 793.441 485.854 802.209 458.984C806.588 445.564 812.544 435.389 820.032 428.38C827.504 421.386 836.549 417.499 847.211 416.724L847.211 416.724C857.853 415.949 867.136 418.48 875.117 424.291C883.115 430.116 889.87 439.286 895.339 451.894C906.29 477.141 912.985 518.802 915.351 576.995Z" stroke="#6576FF" stroke-width="2" stroke-miterlimit="10"/>
<path d="M306.392 633.411C302.54 637.071 298.063 639.786 293.241 641.384C288.42 642.981 283.359 643.428 278.378 642.695C256.865 640.159 243.282 607.182 243.282 607.182C242.698 605.907 241.782 604.869 240.657 604.211C239.533 603.552 238.257 603.305 237.004 603.504L177.312 615.933C176.742 616.04 176.198 616.28 175.713 616.637C175.229 616.995 174.815 617.462 174.498 618.011C174.181 618.559 173.968 619.176 173.872 619.823C173.775 620.469 173.798 621.132 173.938 621.768L184.327 656.013C184.954 657.292 185.857 658.37 186.951 659.146C188.045 659.922 189.294 660.372 190.582 660.452H379.064C380.375 660.375 381.644 659.899 382.737 659.073C383.83 658.248 384.707 657.103 385.275 655.759C385.275 655.759 396.445 625.75 398.455 604.747C401.628 571.499 394.248 543.469 376.316 520.656C359.285 498.384 335.376 484.383 309.52 481.541C293.882 479.638 272.681 484.712 272.681 484.712C272.185 484.899 271.654 484.93 271.143 484.8C270.633 484.671 270.164 484.386 269.785 483.977C269.406 483.568 269.133 483.05 268.993 482.478C268.854 481.905 268.855 481.301 268.995 480.729L274.938 437.606C275.141 436.263 275.783 435.057 276.736 434.229C277.688 433.401 278.881 433.013 280.076 433.141L388.648 446.484C389.824 446.626 391.001 446.234 391.923 445.392C392.844 444.551 393.434 443.329 393.563 441.994L399.841 376.345C399.966 375.01 399.62 373.673 398.879 372.627C398.138 371.581 397.062 370.911 395.886 370.765L219.177 349.025C217.983 348.893 216.79 349.284 215.843 350.119C214.896 350.954 214.266 352.169 214.083 353.515L190.157 541.229C190.017 542.609 190.31 544.001 190.984 545.161C191.658 546.321 192.67 547.174 193.843 547.57L246.901 563.856C249.652 564.502 252.517 563.969 254.943 562.359C254.943 562.359 270.09 550.995 283.248 552.618C296.98 554.309 306.854 560.161 312.871 570.172C318.734 579.554 321.35 591.057 320.221 602.489C318.97 615.764 314.36 626.072 306.392 633.411Z" fill="#6576FF"/>
<path d="M161.965 733.173H115.051C114.434 733.173 113.934 733.741 113.934 734.441C113.934 735.142 114.434 735.71 115.051 735.71H161.965C162.582 735.71 163.082 735.142 163.082 734.441C163.082 733.741 162.582 733.173 161.965 733.173Z" fill="#C4CEFE"/>
<path d="M298.239 730.636H251.325C250.708 730.636 250.208 731.204 250.208 731.904C250.208 732.605 250.708 733.173 251.325 733.173H298.239C298.856 733.173 299.356 732.605 299.356 731.904C299.356 731.204 298.856 730.636 298.239 730.636Z" fill="#C4CEFE"/>
<path d="M398.769 712.879H351.855C351.238 712.879 350.738 713.447 350.738 714.148C350.738 714.848 351.238 715.416 351.855 715.416H398.769C399.386 715.416 399.886 714.848 399.886 714.148C399.886 713.447 399.386 712.879 398.769 712.879Z" fill="#C4CEFE"/>
<path d="M479.193 748.393H432.279C431.662 748.393 431.162 748.961 431.162 749.661C431.162 750.362 431.662 750.929 432.279 750.929H479.193C479.81 750.929 480.31 750.362 480.31 749.661C480.31 748.961 479.81 748.393 479.193 748.393Z" fill="#C4CEFE"/>
<path d="M640.041 733.173H593.127C592.51 733.173 592.01 733.741 592.01 734.441C592.01 735.142 592.51 735.71 593.127 735.71H640.041C640.658 735.71 641.158 735.142 641.158 734.441C641.158 733.741 640.658 733.173 640.041 733.173Z" fill="#C4CEFE"/>
<path d="M832.165 735.709H785.251C784.634 735.709 784.134 736.277 784.134 736.978C784.134 737.678 784.634 738.246 785.251 738.246H832.165C832.782 738.246 833.282 737.678 833.282 736.978C833.282 736.277 832.782 735.709 832.165 735.709Z" fill="#C4CEFE"/>
<path d="M228.985 690.049H182.071C181.454 690.049 180.954 690.617 180.954 691.318C180.954 692.018 181.454 692.586 182.071 692.586H228.985C229.602 692.586 230.102 692.018 230.102 691.318C230.102 690.617 229.602 690.049 228.985 690.049Z" fill="#C4CEFE"/>
<path d="M564.085 705.269H517.171C516.554 705.269 516.054 705.837 516.054 706.538C516.054 707.238 516.554 707.806 517.171 707.806H564.085C564.702 707.806 565.202 707.238 565.202 706.538C565.202 705.837 564.702 705.269 564.085 705.269Z" fill="#C4CEFE"/>
<path d="M912.589 705.269H865.675C865.058 705.269 864.558 705.837 864.558 706.538C864.558 707.238 865.058 707.806 865.675 707.806H912.589C913.206 707.806 913.706 707.238 913.706 706.538C913.706 705.837 913.206 705.269 912.589 705.269Z" fill="#C4CEFE"/>
<path d="M742.805 705.269H695.891C695.274 705.269 694.774 705.837 694.774 706.538C694.774 707.238 695.274 707.806 695.891 707.806H742.805C743.422 707.806 743.922 707.238 743.922 706.538C743.922 705.837 743.422 705.269 742.805 705.269Z" fill="#C4CEFE"/>
<path d="M970.673 730.636H923.759C923.142 730.636 922.642 731.204 922.642 731.904C922.642 732.605 923.142 733.173 923.759 733.173H970.673C971.29 733.173 971.79 732.605 971.79 731.904C971.79 731.204 971.29 730.636 970.673 730.636Z" fill="#C4CEFE"/>
<path d="M1001.93 659.533C1001.93 660.206 1001.69 660.851 1001.27 661.327C1000.85 661.803 1000.29 662.07 999.693 662.07H154.146C153.554 662.07 152.985 661.803 152.566 661.327C152.147 660.851 151.912 660.206 151.912 659.533C151.912 658.86 152.147 658.215 152.566 657.74C152.985 657.264 153.554 656.997 154.146 656.997H999.648C1000.24 656.997 1000.81 657.264 1001.23 657.74C1001.65 658.215 1001.88 658.86 1001.88 659.533H1001.93Z" fill="#6576FF"/>
<path d="M126.913 659.533C126.917 660.156 126.719 660.759 126.357 661.227C125.994 661.695 125.492 661.995 124.947 662.07H75.2633C74.7184 661.995 74.2169 661.695 73.8543 661.227C73.4917 660.759 73.2935 660.156 73.2974 659.533C73.2935 658.91 73.4917 658.307 73.8543 657.839C74.2169 657.371 74.7184 657.071 75.2633 656.997H124.947C125.492 657.071 125.994 657.371 126.357 657.839C126.719 658.307 126.917 658.91 126.913 659.533Z" fill="#6576FF"/>
<path d="M1065.89 659.533C1065.9 659.847 1065.87 660.161 1065.78 660.458C1065.69 660.755 1065.55 661.03 1065.37 661.265C1065.18 661.501 1064.96 661.693 1064.71 661.831C1064.47 661.969 1064.2 662.051 1063.92 662.07H1027.64C1027.09 662.001 1026.58 661.704 1026.22 661.235C1025.85 660.767 1025.65 660.16 1025.65 659.533C1025.65 658.906 1025.85 658.3 1026.22 657.831C1026.58 657.363 1027.09 657.066 1027.64 656.997H1063.9C1064.17 657.016 1064.44 657.097 1064.69 657.235C1064.94 657.373 1065.16 657.566 1065.34 657.801C1065.53 658.037 1065.67 658.311 1065.76 658.608C1065.85 658.906 1065.88 659.22 1065.86 659.533H1065.89Z" fill="#6576FF"/>
<path opacity="0.5" d="M121.06 284.107C140.027 284.107 141.501 251.637 122.557 250.191C121.842 250.191 121.105 250.191 120.323 250.191C116.986 250.185 113.669 250.776 110.493 251.942C109.214 243.064 105.167 235.005 99.0894 229.234C93.012 223.464 85.31 220.366 77.3887 220.508C69.4675 220.649 61.8551 224.02 55.9406 230.005C50.0261 235.99 46.2038 244.19 45.1713 253.109C41.07 250.882 36.5811 249.729 32.0353 249.735C29.3099 249.732 26.5967 250.15 23.9706 250.978C7.41666 256.051 11.2591 284.183 28.4386 284.183L121.06 284.107Z" fill="#E1E6FF"/>
<g opacity="0.5">
<path d="M972.081 425.856L978.425 415.861L984.77 405.867L989.215 417.104L993.683 428.316L982.871 427.099L972.081 425.856Z" fill="#DAE0F7"/>
<path d="M385.678 126.377L393.407 112.045L401.137 97.7378L408.196 112.501L415.256 127.265L400.467 126.833L385.678 126.377Z" fill="#DAE0F7"/>
<path d="M171.616 47.0805L163.44 40.7896L155.241 34.4987L164.132 29.6029L173.023 24.6818L172.331 35.8938L171.616 47.0805Z" fill="#DAE0F7"/>
<path d="M842.71 275.051L834.422 278.095L826.156 281.113L827.988 271.474L829.797 261.809L836.253 268.43L842.71 275.051Z" fill="#DAE0F7"/>
<path d="M1063.83 124.373L1052.04 126.909H1040.24L1046.05 113.262L1051.86 101.619L1057.84 113.135L1063.83 124.373Z" fill="#DAE0F7"/>
<path d="M667.743 392.93L657.176 386.943L646.631 380.982L656.461 373.6L666.291 366.193L667.005 379.561L667.743 392.93Z" fill="#DAE0F7"/>
<path d="M106.003 424.739L100.396 421.569L94.811 418.398L100.016 414.491L105.221 410.56L105.624 417.637L106.003 424.739Z" fill="#DAE0F7"/>
<path d="M257.379 211.025L251.236 209.782L245.07 208.539L249.113 203.111L253.135 197.682L255.257 204.354L257.379 211.025Z" fill="#DAE0F7"/>
</g>
</svg>
