<?xml version="1.0" standalone="no"?><svg xmlns="http://www.w3.org/2000/svg" viewBox="0 0 1440 320"><path fill="#0099ff" fill-opacity="1" d="M0,224L40,213.3C80,203,160,181,240,181.3C320,181,400,203,480,208C560,213,640,203,720,176C800,149,880,107,960,112C1040,117,1120,171,1200,170.7C1280,171,1360,117,1400,90.7L1440,64L1440,320L1400,320C1360,320,1280,320,1200,320C1120,320,1040,320,960,320C880,320,800,320,720,320C640,320,560,320,480,320C400,320,320,320,240,320C160,320,80,320,40,320L0,320Z"></path></svg>